<?xml version="1.0" encoding="utf-8"?>
<!-- Generator: Adobe Illustrator 19.2.0, SVG Export Plug-In . SVG Version: 6.00 Build 0)  -->
<svg version="1.1" id="Layer_1" xmlns="http://www.w3.org/2000/svg" xmlns:xlink="http://www.w3.org/1999/xlink" x="0px" y="0px"
	 viewBox="0 0 1000 1000" style="enable-background:new 0 0 1000 1000;" xml:space="preserve">
<style type="text/css">
	.st0{fill:#FF4F16;}
	.st1{fill:#FFFFFF;}
	.st2{fill:#40191E;}
</style>
<rect x="0.9" class="st0" width="1000" height="1000"/>
<g>
	<path class="st1" d="M210.2,490.4l-4.7,18.6c-7.9-3.6-17.1-3.8-23.8-0.6c-12,5.8-16.4,19.8-10.3,32.2c6.2,12.6,19.9,17.8,31.9,12
		c6.4-3.1,12-10.1,14.7-18.1l17,6.4c-4,12.3-13.3,23.6-24.4,29c-22.8,11.1-47.8,2.7-58.6-19.5c-10.6-21.8-1.3-46.7,21.7-57.9
		C184.7,487.1,198.8,486.4,210.2,490.4z"/>
	<path class="st1" d="M328.4,464.4c10.7,22,1.4,47.2-22,58.7c-23.3,11.4-48.9,3.3-59.7-18.8c-10.7-22-1.2-46.8,22.1-58.2
		C292.2,434.6,317.7,442.5,328.4,464.4z M266.4,494.8c6.2,12.7,20.8,17.8,32.4,12.1c11.6-5.7,16.1-20,9.9-32.7
		c-6.2-12.7-20.2-17.8-31.8-12.1C265.2,467.7,260.2,482,266.4,494.8z"/>
	<path class="st1" d="M433.3,480.2l-48.5-42.6l10.7,50.6l-19.6,4.1l-17.3-82.2l18.4-3.9l48.6,42.7l-10.7-50.7l19.5-4.1l17.3,82.2
		L433.3,480.2z"/>
	<path class="st1" d="M529.3,409.4l-2.7,66.8l-21.3-0.9l2.7-66.8l-25.1-1l0.7-17.3l71.7,2.9l-0.7,17.3L529.3,409.4z"/>
	<path class="st1" d="M593.9,470.1l-9.9,13.3l-21.2-5.7l56.9-71.6l21.2,5.7l12.3,90.3l-22-5.9l-1.8-16.5L593.9,470.1z M624.1,429.3
		l-19.9,26.8l23.4,6.3L624.1,429.3z"/>
	<path class="st1" d="M772.8,482.9l-17.5,7.7c-2-8.5-7.5-15.8-14.2-19.1c-12-5.8-25.7-0.8-31.7,11.6c-6.2,12.6-1.8,26.6,10.2,32.5
		c6.4,3.1,15.4,3.2,23.3,0.4l5.4,17.3c-12.1,4.4-26.8,4-37.9-1.4c-22.8-11.1-31.5-36.1-20.7-58.2c10.6-21.8,36-29.7,59-18.5
		C759.8,460.9,769.1,471.5,772.8,482.9z"/>
	<path class="st1" d="M836.6,518.2l-29.3,60.1l-19.2-9.4l29.3-60.1l-22.5-11l7.6-15.5l64.5,31.5l-7.6,15.5L836.6,518.2z"/>
</g>
<g>
	<path class="st2" d="M362.1,337.8c5.2,14,0.5,24.9-12.3,29.8c-8,3-16.4,1.8-23.8-2.8l1.7-8.1c6.6,3.8,13.3,4.5,18.9,2.4
		c7.9-3,10.6-9.4,7.2-18.3l-15.9-42.3l-25.8,9.6l-3-7.9l34.1-12.8L362.1,337.8z"/>
	<path class="st2" d="M475.1,298.9c3.2,21.4-11.9,41.1-34.1,44.4c-22.3,3.3-42.5-11.2-45.6-32.6c-3.2-21.5,12-40.9,34.3-44.2
		C451.8,263.2,471.9,277.5,475.1,298.9z M404.1,309.4c2.5,16.8,18.6,28.1,35.6,25.6c17-2.5,28.9-17.9,26.5-34.7
		c-2.5-16.8-18.4-28-35.3-25.5C413.8,277.2,401.7,292.6,404.1,309.4z"/>
	<path class="st2" d="M580,278.4l-5.9,6.1c-5.3-6.6-13.3-11.1-21.7-11.9c-17.3-1.7-32.5,10.2-34.2,27.1
		c-1.7,16.7,10.8,31.6,28.1,33.4c8.4,0.9,17-1.8,23.6-6.9l4.8,6.6c-8.3,6.4-19,10-29.6,8.9c-22.1-2.2-37.9-21.2-35.7-42.9
		c2.2-21.4,21.6-36.6,43.8-34.4C563.6,265.4,573.3,270.7,580,278.4z"/>
	<path class="st2" d="M618.6,335.8l-14.4,15.6l-8.8-3l57.7-61.6l8.6,3l7.6,84l-9.1-3.1l-1.8-21.2L618.6,335.8z M653.8,297.7
		l-28.9,31.4l32.7,11.2L653.8,297.7z"/>
</g>
<g>
	<g>
		<path class="st2" d="M553.8,740.3c-0.1,0-0.2,0-0.3,0c-1.7-0.2-2.9-1.7-2.7-3.3c0.2-1.6,0.2-3.3,0.2-4.9
			c0-28.6-23.3-51.8-51.8-51.8s-51.8,23.3-51.8,51.8c0,1.6,0.1,3.2,0.2,4.8c0.2,1.7-1.1,3.2-2.8,3.3c-1.6,0.1-3.2-1.1-3.3-2.8
			c-0.2-1.8-0.2-3.5-0.2-5.3c0-31.9,26-57.9,57.9-57.9c31.9,0,57.9,26,57.9,57.9c0,1.9-0.1,3.7-0.3,5.5
			C556.7,739.1,555.3,740.3,553.8,740.3z"/>
	</g>
	<g>
		<path class="st2" d="M748.6,700c-1.5,0-2.8-1.1-3-2.6c-0.2-1.7,0.9-3.2,2.6-3.4l107-15c1.6-0.2,3.2,0.9,3.4,2.6
			c0.2,1.7-0.9,3.2-2.6,3.4l-107,15C748.9,700,748.7,700,748.6,700z"/>
	</g>
	<g>
		<path class="st2" d="M499.2,583.2c-1.7,0-3-1.4-3-3v-31.1c0-1.7,1.4-3,3-3c1.7,0,3,1.4,3,3v31.1
			C502.2,581.8,500.9,583.2,499.2,583.2z"/>
	</g>
	<g>
		<path class="st2" d="M499.2,661.9c-1.7,0-3-1.4-3-3v-63c0-1.7,1.4-3,3-3c1.7,0,3,1.4,3,3v63C502.2,660.5,500.9,661.9,499.2,661.9z
			"/>
	</g>
	<g>
		<path class="st2" d="M562.5,698.4c-1,0-2.1-0.5-2.6-1.5c-0.8-1.5-0.3-3.3,1.1-4.2l75.5-43.6c1.5-0.9,3.3-0.3,4.2,1.1
			c0.8,1.5,0.3,3.3-1.1,4.2L564.1,698C563.6,698.3,563,698.4,562.5,698.4z"/>
	</g>
	<g>
		<path class="st2" d="M327.6,636c-0.5,0-1-0.1-1.5-0.4l-29.2-16.9c-1.5-0.8-2-2.7-1.1-4.2c0.8-1.5,2.7-2,4.2-1.1l29.2,16.9
			c1.5,0.8,2,2.7,1.1,4.2C329.7,635.4,328.6,636,327.6,636z"/>
	</g>
	<g>
		<path class="st2" d="M394.8,674.8c-0.5,0-1-0.1-1.5-0.4L340,643.6c-1.5-0.8-2-2.7-1.1-4.2c0.8-1.5,2.7-2,4.2-1.1l53.3,30.8
			c1.5,0.8,2,2.7,1.1,4.2C396.9,674.2,395.9,674.8,394.8,674.8z"/>
	</g>
	<g>
		<path class="st2" d="M435.8,698.4c-0.5,0-1-0.1-1.5-0.4L407,682.3c-1.5-0.8-2-2.7-1.1-4.2c0.8-1.5,2.7-2,4.2-1.1l27.3,15.7
			c1.5,0.8,2,2.7,1.1,4.2C437.9,697.9,436.9,698.4,435.8,698.4z"/>
	</g>
	<g>
		<path class="st2" d="M439.9,675.8c-0.8,0-1.6-0.3-2.2-0.9L359.8,597c-1.2-1.2-1.2-3.1,0-4.3c1.2-1.2,3.1-1.2,4.3,0l77.9,77.9
			c1.2,1.2,1.2,3.1,0,4.3C441.5,675.5,440.7,675.8,439.9,675.8z"/>
	</g>
	<g>
		<path class="st2" d="M413.7,587.1c-1.1,0-2.1-0.5-2.6-1.5l-3.1-5.4c-0.8-1.5-0.3-3.3,1.1-4.2c1.5-0.9,3.3-0.3,4.2,1.1l3.1,5.4
			c0.8,1.5,0.3,3.3-1.1,4.2C414.8,586.9,414.3,587.1,413.7,587.1z"/>
	</g>
	<g>
		<path class="st2" d="M462.6,671.7c-1.1,0-2.1-0.5-2.6-1.5l-40.4-69.9c-0.8-1.5-0.3-3.3,1.1-4.2c1.5-0.9,3.3-0.3,4.2,1.1l40.4,69.9
			c0.8,1.5,0.3,3.3-1.1,4.2C463.6,671.5,463.1,671.7,462.6,671.7z"/>
	</g>
	<g>
		<path class="st2" d="M477.2,653.1c-1.3,0-2.6-0.9-2.9-2.3l-23-86c-0.4-1.6,0.5-3.3,2.2-3.7c1.6-0.4,3.3,0.5,3.7,2.2l23,86
			c0.4,1.6-0.5,3.3-2.2,3.7C477.7,653.1,477.5,653.1,477.2,653.1z"/>
	</g>
	<g>
		<path class="st2" d="M525.5,636.7c-0.3,0-0.5,0-0.8-0.1c-1.6-0.4-2.6-2.1-2.2-3.7l18.6-69.5c0.4-1.6,2.1-2.6,3.7-2.2
			c1.6,0.4,2.6,2.1,2.2,3.7l-18.6,69.5C528.1,635.8,526.9,636.7,525.5,636.7z"/>
	</g>
	<g>
		<path class="st2" d="M558.5,632.2c-0.5,0-1-0.1-1.5-0.4c-1.5-0.8-2-2.7-1.1-4.2l29.2-50.6c0.8-1.5,2.7-2,4.2-1.1
			c1.5,0.8,2,2.7,1.1,4.2l-29.2,50.6C560.6,631.7,559.6,632.2,558.5,632.2z"/>
	</g>
	<g>
		<path class="st2" d="M535.8,671.7c-0.5,0-1-0.1-1.5-0.4c-1.5-0.8-2-2.7-1.1-4.2l15.6-27.1c0.8-1.5,2.7-2,4.2-1.1
			c1.5,0.8,2,2.7,1.1,4.2l-15.6,27.1C537.8,671.1,536.8,671.7,535.8,671.7z"/>
	</g>
	<g>
		<path class="st2" d="M592.4,641.8c-0.8,0-1.6-0.3-2.2-0.9c-1.2-1.2-1.2-3.1,0-4.3l43.9-43.9c1.2-1.2,3.1-1.2,4.3,0
			c1.2,1.2,1.2,3.1,0,4.3l-43.9,43.9C593.9,641.5,593.2,641.8,592.4,641.8z"/>
	</g>
	<g>
		<path class="st2" d="M557.3,676.9c-0.8,0-1.6-0.3-2.2-0.9c-1.2-1.2-1.2-3.1,0-4.3l25.7-25.7c1.2-1.2,3.1-1.2,4.3,0
			c1.2,1.2,1.2,3.1,0,4.3L559.5,676C558.9,676.6,558.1,676.9,557.3,676.9z"/>
	</g>
	<g>
		<path class="st2" d="M650.9,647.4c-1,0-2.1-0.5-2.6-1.5c-0.8-1.5-0.3-3.3,1.1-4.2l49.1-28.4c1.5-0.9,3.3-0.3,4.2,1.1
			c0.8,1.5,0.3,3.3-1.1,4.2L652.4,647C651.9,647.3,651.4,647.4,650.9,647.4z"/>
	</g>
	<g>
		<path class="st2" d="M582.6,723.3c-1.5,0-2.8-1.1-3-2.6c-0.2-1.7,0.9-3.2,2.6-3.4l139.8-19.6c1.6-0.2,3.2,0.9,3.4,2.6
			c0.2,1.7-0.9,3.2-2.6,3.4L583,723.3C582.8,723.3,582.7,723.3,582.6,723.3z"/>
	</g>
	<g>
		<path class="st2" d="M415.8,723.3c-0.1,0-0.3,0-0.4,0l-139.8-19.6c-1.7-0.2-2.8-1.8-2.6-3.4c0.2-1.7,1.7-2.8,3.4-2.6l139.8,19.6
			c1.7,0.2,2.8,1.8,2.6,3.4C418.6,722.2,417.3,723.3,415.8,723.3z"/>
	</g>
	<g>
		<path class="st2" d="M659.5,682.9c-1.3,0-2.5-0.8-2.9-2.1c-0.5-1.6,0.4-3.3,2-3.8l117.5-38.2c1.6-0.5,3.3,0.4,3.8,2
			c0.5,1.6-0.4,3.3-2,3.8l-117.5,38.2C660.1,682.9,659.8,682.9,659.5,682.9z"/>
	</g>
	<g>
		<path class="st2" d="M249.7,700c-0.1,0-0.3,0-0.4,0l-104.4-14.7c-1.7-0.2-2.8-1.8-2.6-3.4c0.2-1.7,1.7-2.8,3.4-2.6l104.4,14.7
			c1.7,0.2,2.8,1.8,2.6,3.4C252.5,698.9,251.2,700,249.7,700z"/>
	</g>
	<g>
		<path class="st2" d="M338.8,682.9c-0.3,0-0.6,0-0.9-0.1l-117.5-38.2c-1.6-0.5-2.5-2.2-2-3.8c0.5-1.6,2.2-2.5,3.8-2L339.8,677
			c1.6,0.5,2.5,2.2,2,3.8C341.3,682.1,340.1,682.9,338.8,682.9z"/>
	</g>
	<g>
		<path class="st2" d="M409,705.7c-0.3,0-0.6,0-0.9-0.1l-55.8-18.1c-1.6-0.5-2.5-2.2-2-3.8c0.5-1.6,2.2-2.5,3.8-2l55.8,18.1
			c1.6,0.5,2.5,2.2,2,3.8C411.5,704.9,410.3,705.7,409,705.7z"/>
	</g>
	<g>
		<path class="st2" d="M589.3,705.7c-1.3,0-2.5-0.8-2.9-2.1c-0.5-1.6,0.4-3.3,2-3.8l55.8-18.1c1.6-0.5,3.3,0.4,3.8,2s-0.4,3.3-2,3.8
			l-55.8,18.1C589.9,705.7,589.6,705.7,589.3,705.7z"/>
	</g>
	<g>
		<g>
			<path class="st2" d="M746.1,767.8c-14.3,0-21.5-2.7-28.5-5.3c-6.8-2.5-13.2-4.9-26.4-4.9c-1.7,0-3-1.4-3-3s1.4-3,3-3
				c14.3,0,21.5,2.7,28.5,5.3c6.8,2.5,13.2,4.9,26.4,4.9c13.2,0,19.6-2.4,26.4-4.9c7-2.6,14.2-5.3,28.5-5.3c1.7,0,3,1.4,3,3
				s-1.4,3-3,3c-13.2,0-19.6,2.4-26.4,4.9C767.6,765.1,760.4,767.8,746.1,767.8z"/>
		</g>
		<g>
			<path class="st2" d="M636.4,767.8c-14.3,0-21.5-2.7-28.5-5.3c-6.8-2.5-13.2-4.9-26.4-4.9c-13.2,0-19.6,2.4-26.4,4.9
				c-7,2.6-14.2,5.3-28.5,5.3c-14.3,0-21.5-2.7-28.5-5.3c-6.8-2.5-13.2-4.9-26.4-4.9c-13.2,0-19.6,2.4-26.4,4.9
				c-7,2.6-14.2,5.3-28.5,5.3c-1.7,0-3-1.4-3-3s1.4-3,3-3c13.2,0,19.6-2.4,26.4-4.9c7-2.6,14.2-5.3,28.5-5.3
				c14.3,0,21.5,2.7,28.5,5.3c6.8,2.5,13.2,4.9,26.4,4.9c13.2,0,19.6-2.4,26.4-4.9c7-2.6,14.2-5.3,28.5-5.3
				c14.3,0,21.5,2.7,28.5,5.3c6.8,2.5,13.2,4.9,26.4,4.9c1.7,0,3,1.4,3,3S638,767.8,636.4,767.8z"/>
		</g>
		<g>
			<path class="st2" d="M307.1,767.8c-14.3,0-21.5-2.7-28.5-5.3c-6.8-2.5-13.2-4.9-26.4-4.9s-19.6,2.4-26.4,4.9
				c-7,2.6-14.2,5.3-28.5,5.3c-1.7,0-3-1.4-3-3s1.4-3,3-3c13.2,0,19.6-2.4,26.4-4.9c7-2.6,14.2-5.3,28.5-5.3s21.5,2.7,28.5,5.3
				c6.8,2.5,13.2,4.9,26.4,4.9c13.2,0,19.6-2.4,26.4-4.9c7-2.6,14.2-5.3,28.5-5.3c1.7,0,3,1.4,3,3s-1.4,3-3,3
				c-13.2,0-19.6,2.4-26.4,4.9C328.6,765.1,321.4,767.8,307.1,767.8z"/>
		</g>
		<g>
			<path class="st2" d="M855.9,745.3c-14.3,0-21.5-2.7-28.5-5.3c-6.8-2.5-13.2-4.9-26.4-4.9c-13.2,0-19.6,2.4-26.4,4.9
				c-7,2.6-14.2,5.3-28.5,5.3c-14.3,0-21.5-2.7-28.5-5.3c-6.8-2.5-13.2-4.9-26.4-4.9c-13.2,0-19.6,2.4-26.4,4.9
				c-7,2.6-14.2,5.3-28.5,5.3c-7.6,0-13.8-0.8-19.7-2.4c-1.6-0.4-2.6-2.1-2.1-3.7c0.5-1.6,2.1-2.6,3.7-2.1
				c5.3,1.5,11.1,2.1,18.1,2.1c13.2,0,19.6-2.4,26.4-4.9c7-2.6,14.2-5.3,28.5-5.3c14.3,0,21.5,2.7,28.5,5.3
				c6.8,2.5,13.2,4.9,26.4,4.9c13.2,0,19.6-2.4,26.4-4.9c7-2.6,14.2-5.3,28.5-5.3c14.3,0,21.5,2.7,28.5,5.3
				c6.8,2.5,13.2,4.9,26.4,4.9c1.7,0,3,1.4,3,3S857.5,745.3,855.9,745.3z"/>
		</g>
		<g>
			<path class="st2" d="M526.6,745.3c-14.3,0-21.5-2.7-28.5-5.3c-6.8-2.5-13.2-4.9-26.4-4.9c-13.2,0-19.6,2.4-26.4,4.9
				c-7,2.6-14.2,5.3-28.5,5.3s-21.5-2.7-28.5-5.3c-6.8-2.5-13.2-4.9-26.4-4.9s-19.6,2.4-26.4,4.9c-7,2.6-14.2,5.3-28.5,5.3
				s-21.5-2.7-28.5-5.3c-6.8-2.5-13.2-4.9-26.4-4.9c-13.2,0-19.6,2.4-26.4,4.9c-7,2.6-14.2,5.3-28.5,5.3s-21.5-2.7-28.5-5.3
				c-6.8-2.5-13.2-4.9-26.4-4.9c-1.7,0-3-1.4-3-3c0-1.7,1.4-3,3-3c14.3,0,21.5,2.7,28.5,5.3c6.8,2.5,13.2,4.9,26.4,4.9
				s19.6-2.4,26.4-4.9c7-2.6,14.2-5.3,28.5-5.3c14.3,0,21.5,2.7,28.5,5.3c6.8,2.5,13.2,4.9,26.4,4.9s19.6-2.4,26.4-4.9
				c7-2.6,14.2-5.3,28.5-5.3s21.5,2.7,28.5,5.3c6.8,2.5,13.2,4.9,26.4,4.9s19.6-2.4,26.4-4.9c7-2.6,14.2-5.3,28.5-5.3
				s21.5,2.7,28.5,5.3c6.8,2.5,13.2,4.9,26.4,4.9c13.2,0,19.6-2.4,26.4-4.9c7-2.6,14.2-5.3,28.5-5.3c1.7,0,3,1.4,3,3
				c0,1.7-1.4,3-3,3c-13.2,0-19.6,2.4-26.4,4.9C548.1,742.6,540.9,745.3,526.6,745.3z"/>
		</g>
		<g>
			<path class="st2" d="M746.1,790.3c-14.3,0-21.5-2.7-28.5-5.3c-6.8-2.5-13.2-4.9-26.4-4.9c-13.2,0-19.6,2.4-26.4,4.9
				c-7,2.6-14.2,5.3-28.5,5.3c-14.3,0-21.5-2.7-28.5-5.3c-6.8-2.5-13.2-4.9-26.4-4.9c-13.2,0-19.6,2.4-26.4,4.9
				c-7,2.6-14.2,5.3-28.5,5.3c-14.3,0-21.5-2.7-28.5-5.3c-6.8-2.5-13.2-4.9-26.4-4.9c-13.2,0-19.6,2.4-26.4,4.9
				c-7,2.6-14.2,5.3-28.5,5.3s-21.5-2.7-28.5-5.3c-6.8-2.5-13.2-4.9-26.4-4.9s-19.6,2.4-26.4,4.9c-7,2.6-14.2,5.3-28.5,5.3
				s-21.5-2.7-28.5-5.3c-6.8-2.5-13.2-4.9-26.4-4.9c-1.7,0-3-1.4-3-3c0-1.7,1.4-3,3-3c14.3,0,21.5,2.7,28.5,5.3
				c6.8,2.5,13.2,4.9,26.4,4.9s19.6-2.4,26.4-4.9c7-2.6,14.2-5.3,28.5-5.3s21.5,2.7,28.5,5.3c6.8,2.5,13.2,4.9,26.4,4.9
				s19.6-2.4,26.4-4.9c7-2.6,14.2-5.3,28.5-5.3s21.5,2.7,28.5,5.3c6.8,2.5,13.2,4.9,26.4,4.9c13.2,0,19.6-2.4,26.4-4.9
				c7-2.6,14.2-5.3,28.5-5.3c14.3,0,21.5,2.7,28.5,5.3c6.8,2.5,13.2,4.9,26.4,4.9c13.2,0,19.6-2.4,26.4-4.9c7-2.6,14.2-5.3,28.5-5.3
				c14.3,0,21.5,2.7,28.5,5.3c6.8,2.5,13.2,4.9,26.4,4.9c1.7,0,3,1.4,3,3S747.8,790.3,746.1,790.3z"/>
		</g>
		<g>
			<path class="st2" d="M636.4,812.7c-14.3,0-21.5-2.7-28.5-5.3c-6.8-2.5-13.2-4.9-26.4-4.9c-1.7,0-3-1.4-3-3s1.4-3,3-3
				c14.3,0,21.5,2.7,28.5,5.3c6.8,2.5,13.2,4.9,26.4,4.9c13.2,0,19.6-2.4,26.4-4.9c7-2.6,14.2-5.3,28.5-5.3c1.7,0,3,1.4,3,3
				s-1.4,3-3,3c-13.2,0-19.6,2.4-26.4,4.9C657.9,810,650.6,812.7,636.4,812.7z"/>
		</g>
		<g>
			<path class="st2" d="M526.6,812.7c-14.3,0-21.5-2.7-28.5-5.3c-6.8-2.5-13.2-4.9-26.4-4.9c-13.2,0-19.6,2.4-26.4,4.9
				c-7,2.6-14.2,5.3-28.5,5.3s-21.5-2.7-28.5-5.3c-6.8-2.5-13.2-4.9-26.4-4.9s-19.6,2.4-26.4,4.9c-7,2.6-14.2,5.3-28.5,5.3
				c-1.7,0-3-1.4-3-3c0-1.7,1.4-3,3-3c13.2,0,19.6-2.4,26.4-4.9c7-2.6,14.2-5.3,28.5-5.3s21.5,2.7,28.5,5.3
				c6.8,2.5,13.2,4.9,26.4,4.9s19.6-2.4,26.4-4.9c7-2.6,14.2-5.3,28.5-5.3s21.5,2.7,28.5,5.3c6.8,2.5,13.2,4.9,26.4,4.9
				c1.7,0,3,1.4,3,3C529.7,811.4,528.3,812.7,526.6,812.7z"/>
		</g>
		<g>
			<path class="st2" d="M636.4,835.2c-14.3,0-21.5-2.7-28.5-5.3c-6.8-2.5-13.2-4.9-26.4-4.9c-13.2,0-19.6,2.4-26.4,4.9
				c-7,2.6-14.2,5.3-28.5,5.3c-14.3,0-21.5-2.7-28.5-5.3c-6.8-2.5-13.2-4.9-26.4-4.9c-13.2,0-19.6,2.4-26.4,4.9
				c-7,2.6-14.2,5.3-28.5,5.3c-14.3,0-21.5-2.7-28.5-5.3c-6.8-2.5-13.2-4.9-26.4-4.9c-1.7,0-3-1.4-3-3s1.4-3,3-3
				c14.3,0,21.5,2.7,28.5,5.3c6.8,2.5,13.2,4.9,26.4,4.9c13.2,0,19.6-2.4,26.4-4.9c7-2.6,14.2-5.3,28.5-5.3
				c14.3,0,21.5,2.7,28.5,5.3c6.8,2.5,13.2,4.9,26.4,4.9c13.2,0,19.6-2.4,26.4-4.9c7-2.6,14.2-5.3,28.5-5.3
				c14.3,0,21.5,2.7,28.5,5.3c6.8,2.5,13.2,4.9,26.4,4.9c1.7,0,3,1.4,3,3S638,835.2,636.4,835.2z"/>
		</g>
	</g>
</g>
</svg>
